<svg width="276" height="520" xmlns="http://www.w3.org/2000/svg" xmlns:xlink="http://www.w3.org/1999/xlink" overflow="hidden"><defs><clipPath id="clip0"><rect x="-43" y="-16" width="276" height="520"/></clipPath><linearGradient x1="-131.319" y1="119.493" x2="244.851" y2="404.704" gradientUnits="userSpaceOnUse" spreadMethod="reflect" id="fill1"><stop offset="0" stop-color="#00B0F0"/><stop offset="0.74" stop-color="#002060"/><stop offset="0.83" stop-color="#002060"/><stop offset="1" stop-color="#002060"/></linearGradient></defs><g clip-path="url(#clip0)" transform="translate(43 16)"><path d="M-41.4029 309.037 94.9091 415.203 231.021 335.649 231.913 421.769 98.6729 500.426 97.4423 502.015 96.8151 501.523 96.5171 501.699 96.0972 500.959-40.5893 393.587ZM-30.4766-13.5097 230.457 185.539 227.186 189.198 231.021 186.956 231.913 273.076 98.6728 351.733 97.4423 353.323 96.8151 352.83 96.517 353.006 96.0972 352.266-40.5894 244.895-41.4028 160.344 94.9091 266.51 163.994 226.132-35.9825 76.0998Z" stroke="#002060" stroke-width="1.33333" stroke-miterlimit="8" fill="url(#fill1)" fill-rule="evenodd"/></g></svg>